# xmcd
#
# Track frame offsets:
# 150
# 12779
# 26129
# 40997
# 52703
# 68459
# 85532
# 97161
# 111820
# 125250
# 142755
# 157136
#
# Disc length: 2250 seconds
#
#
# Revision: 0
# Processed by: cddbd v1.5.2PL0 Copyright (c) Steve Scherf et al.
# Submitted via: FreeRIP 2.951 
#
DISCID=8d08c80c
DTITLE=sputnik  - sputnik 5 
DYEAR=1900
DGENRE=norsk 
TTITLE0=01 - Tusen Røde Roser
TTITLE1=02 - Jeg Lengter Hjem Til Barndomshjemmet
TTITLE2=03 - Henne Jeg Elsket Først
TTITLE3=04 - Ann Kristin
TTITLE4=05 - Kjære Kone
TTITLE5=06 - (Det Er) Deiligst I Drangedal
TTITLE6=07 - Ekte Kjærlighet
TTITLE7=08 - Kjære Sputinik
TTITLE8=09 - Farvel, Min Venn
TTITLE9=10 - Verdens Peneste Blomst
TTITLE10=11 - Kjærlighet Ved Grensen
TTITLE11=12 - En Hilsen Skal De Ha
EXTD=
EXTT0=
EXTT1=
EXTT2=
EXTT3=
EXTT4=
EXTT5=
EXTT6=
EXTT7=
EXTT8=
EXTT9=
EXTT10=
EXTT11=
PLAYORDER=
